Release info:

General
Format                                   : Matroska
Format version                           : Version 4 / Version 2
File size                                : 694 MiB
Duration                                 : 1h 42mn
Overall bit rate mode                    : Variable
Overall bit rate                         : 944 Kbps

Video
ID                                       : 1
Format                                   : MPEG-4 Visual
Format profile                           : Advanced Simple@L5
Format settings, BVOP                    : Yes
Format settings, QPel                    : No
Format settings, GMC                     : No warppoints
Format settings, Matrix                  : Default (H.263)
Codec ID                                 : V_MS/VFW/FOURCC / XVID
Codec ID/Hint                            : XviD
Duration                                 : 1h 42mn
Bit rate                                 : 798 Kbps
Width                                    : 624 pixels
Height                                   : 352 pixels
Display aspect ratio                     : 16:9
Frame rate mode                          : Constant
Frame rate                               : 23.976 fps
Color space                              : YUV
Chroma subsampling                       : 4:2:0
Bit depth                                : 8 bits
Scan type                                : Progressive
Compression mode                         : Lossy
Bits/(Pixel*Frame)                       : 0.151
Stream size                              : 586 MiB (84%)
Language                                 : English
Default                                  : Yes
Forced                                   : No

Audio
ID                                       : 2
Format                                   : MPEG Audio
Format version                           : Version 1
Format profile                           : Layer 3
Mode                                     : Joint stereo
Mode extension                           : MS Stereo
Codec ID                                 : A_MPEG/L3
Codec ID/Hint                            : MP3
Duration                                 : 1h 37mn
Bit rate mode                            : Variable
Bit rate                                 : 128 Kbps
Channel(s)                               : 2 channels
Sampling rate                            : 48.0 KHz
Compression mode                         : Lossy
Stream size                              : 89.6 MiB (13%)
Language                                 : English
Default                                  : Yes
Forced                                   : No



Source:
credit to original movie ripper SPARKS (Thanks)

IMDB Info:

An introvert freshman is taken under the wings of two seniors who welcome him to the real world.

Director: Stephen Chbosky
Writers: Stephen Chbosky (screenplay), Stephen Chbosky (based on his book)
Stars: Logan Lerman, Emma Watson, Ezra Miller

Genres: Drama | Romance
 
http://www.imdb.com/title/tt1659337/

Screen Shot:
 
http://www.shotpix.com/images/43679560129625851645.png 
http://www.shotpix.com/images/05989050023102303240.png 
http://www.shotpix.com/images/72899907281664782282.png 
http://www.shotpix.com/images/22769422105978312473.png